<svg id="Ebene_1" data-name="Ebene 1" xmlns="http://www.w3.org/2000/svg" viewBox="0 0 119.94 51.15"><path d="M.12,26.41c0-7.79,5.17-12.3,11.44-12.3a10.18,10.18,0,0,1,7.4,3l-2.8,3.4a6.08,6.08,0,0,0-4.43-1.86c-3.61,0-6.17,2.83-6.17,7.54s2.18,7.62,6.6,7.62a4.16,4.16,0,0,0,2.48-.7v-4H10.76V24.77h8.59V35.59a11.34,11.34,0,0,1-7.74,2.84C5.15,38.43.12,34.31.12,26.41Z" transform="translate(-0.12 -0.08)" style="fill:blue"/><path d="M24.2,14.54H38.9V19H29.5V23.7h8v4.45h-8v5.4h9.76V38H24.2Z" transform="translate(-0.12 -0.08)" style="fill:blue"/><path d="M49.82,4.53H43.36V.08H61.58V4.53H55.12v19h-5.3Z" transform="translate(-0.12 -0.08)" style="fill:blue"/><path d="M49.82,32.22H43.36V27.77H61.58v4.45H55.12v19h-5.3Z" transform="translate(-0.12 -0.08)" style="fill:blue"/><path d="M65.79,35l3-3.64a9.35,9.35,0,0,0,5.76,2.45c2.22,0,3.3-.87,3.3-2.26s-1.34-1.95-3.38-2.8l-3-1.3c-2.43-1-4.74-3-4.74-6.39,0-3.89,3.47-7,8.36-7a10.83,10.83,0,0,1,7.54,3.07L80,20.52a7.68,7.68,0,0,0-4.87-1.83c-1.83,0-3,.76-3,2.1s1.53,2,3.58,2.78l3,1.21c2.86,1.16,4.65,3.06,4.65,6.38,0,3.9-3.25,7.27-8.84,7.27A12.92,12.92,0,0,1,65.79,35Z" transform="translate(-0.12 -0.08)" style="fill:blue"/><path d="M87.32,14.54h5.31V38H87.32Z" transform="translate(-0.12 -0.08)" style="fill:blue"/><path d="M98.16,14.54H104L107.75,25c.47,1.39.88,2.89,1.35,4.34h.15c.47-1.45.86-2.95,1.33-4.34l3.69-10.42h5.79V38h-4.83V29.39c0-2.29.43-5.7.68-8h-.15L113.84,27l-3.32,9h-2.94l-3.33-9-1.87-5.55h-.14c.25,2.27.68,5.68.68,8V38H98.16Z" transform="translate(-0.12 -0.08)" style="fill:blue"/></svg>
